<mxfile host="app.diagrams.net" agent="Mozilla/5.0 (Macintosh; Intel Mac OS X 10_15_7) AppleWebKit/537.36 (KHTML, like Gecko) Chrome/138.0.0.0 Safari/537.36" version="28.0.7">
  <diagram name="Page-1" id="PFb__4JtDoV_QX1OblpZ">
    <mxGraphModel dx="1084" dy="743" grid="1" gridSize="10" guides="1" tooltips="1" connect="1" arrows="1" fold="1" page="1" pageScale="1" pageWidth="850" pageHeight="1100" math="0" shadow="0" adaptiveColors="none">
      <root>
        <mxCell id="0" />
        <mxCell id="1" parent="0" />
        <mxCell id="tw96S8PIWbqsb8BUTVGT-3" value="The Transporter" style="ellipse;whiteSpace=wrap;html=1;aspect=fixed;" parent="1" vertex="1">
          <mxGeometry x="410" y="200" width="200" height="200" as="geometry" />
        </mxCell>
        <mxCell id="x-VR_CXFXEozURfhH9ks-1" value="user" style="whiteSpace=wrap;html=1;aspect=fixed;" parent="1" vertex="1">
          <mxGeometry x="40" y="200" width="200" height="200" as="geometry" />
        </mxCell>
        <mxCell id="x-VR_CXFXEozURfhH9ks-2" value="Admin" style="whiteSpace=wrap;html=1;aspect=fixed;" parent="1" vertex="1">
          <mxGeometry x="770" y="200" width="200" height="200" as="geometry" />
        </mxCell>
        <mxCell id="YZSK7R1u2EPZjKXsCUIQ-5" value="" style="endArrow=classic;html=1;rounded=0;entryX=0.233;entryY=0.083;entryDx=0;entryDy=0;entryPerimeter=0;" edge="1" parent="1" target="tw96S8PIWbqsb8BUTVGT-3">
          <mxGeometry width="50" height="50" relative="1" as="geometry">
            <mxPoint x="240" y="217" as="sourcePoint" />
            <mxPoint x="480" y="400" as="targetPoint" />
          </mxGeometry>
        </mxCell>
        <mxCell id="YZSK7R1u2EPZjKXsCUIQ-6" value="" style="endArrow=classic;html=1;rounded=0;entryX=0.999;entryY=0.179;entryDx=0;entryDy=0;exitX=0.12;exitY=0.174;exitDx=0;exitDy=0;entryPerimeter=0;exitPerimeter=0;" edge="1" parent="1" source="tw96S8PIWbqsb8BUTVGT-3" target="x-VR_CXFXEozURfhH9ks-1">
          <mxGeometry width="50" height="50" relative="1" as="geometry">
            <mxPoint x="430" y="360" as="sourcePoint" />
            <mxPoint x="480" y="310" as="targetPoint" />
            <Array as="points">
              <mxPoint x="340" y="236" />
            </Array>
          </mxGeometry>
        </mxCell>
        <mxCell id="YZSK7R1u2EPZjKXsCUIQ-7" value="Login request" style="text;html=1;align=center;verticalAlign=middle;resizable=0;points=[];autosize=1;strokeColor=none;fillColor=none;" vertex="1" parent="1">
          <mxGeometry x="285" y="190" width="100" height="30" as="geometry" />
        </mxCell>
        <mxCell id="YZSK7R1u2EPZjKXsCUIQ-8" value="Login response" style="text;html=1;align=center;verticalAlign=middle;resizable=0;points=[];autosize=1;strokeColor=none;fillColor=none;" vertex="1" parent="1">
          <mxGeometry x="285" y="210" width="110" height="30" as="geometry" />
        </mxCell>
        <mxCell id="YZSK7R1u2EPZjKXsCUIQ-10" value="" style="endArrow=classic;html=1;rounded=0;entryX=0.027;entryY=0.685;entryDx=0;entryDy=0;entryPerimeter=0;exitX=0.999;exitY=0.679;exitDx=0;exitDy=0;exitPerimeter=0;" edge="1" parent="1" source="x-VR_CXFXEozURfhH9ks-1" target="tw96S8PIWbqsb8BUTVGT-3">
          <mxGeometry width="50" height="50" relative="1" as="geometry">
            <mxPoint x="240" y="319" as="sourcePoint" />
            <mxPoint x="480" y="470" as="targetPoint" />
            <Array as="points" />
          </mxGeometry>
        </mxCell>
        <mxCell id="YZSK7R1u2EPZjKXsCUIQ-11" value="Upload File" style="text;html=1;align=center;verticalAlign=middle;resizable=0;points=[];autosize=1;strokeColor=none;fillColor=none;" vertex="1" parent="1">
          <mxGeometry x="280" y="310" width="80" height="30" as="geometry" />
        </mxCell>
        <mxCell id="YZSK7R1u2EPZjKXsCUIQ-14" value="" style="endArrow=classic;html=1;rounded=0;exitX=1.011;exitY=0.346;exitDx=0;exitDy=0;exitPerimeter=0;entryX=0.022;entryY=0.346;entryDx=0;entryDy=0;entryPerimeter=0;" edge="1" parent="1" source="x-VR_CXFXEozURfhH9ks-1" target="tw96S8PIWbqsb8BUTVGT-3">
          <mxGeometry width="50" height="50" relative="1" as="geometry">
            <mxPoint x="430" y="520" as="sourcePoint" />
            <mxPoint x="480" y="470" as="targetPoint" />
          </mxGeometry>
        </mxCell>
        <mxCell id="YZSK7R1u2EPZjKXsCUIQ-15" value="Signup request" style="text;html=1;align=center;verticalAlign=middle;resizable=0;points=[];autosize=1;strokeColor=none;fillColor=none;" vertex="1" parent="1">
          <mxGeometry x="280" y="240" width="100" height="30" as="geometry" />
        </mxCell>
        <mxCell id="YZSK7R1u2EPZjKXsCUIQ-18" value="" style="endArrow=classic;html=1;rounded=0;exitX=0;exitY=1;exitDx=0;exitDy=0;entryX=0.999;entryY=0.852;entryDx=0;entryDy=0;entryPerimeter=0;" edge="1" parent="1" source="tw96S8PIWbqsb8BUTVGT-3" target="x-VR_CXFXEozURfhH9ks-1">
          <mxGeometry width="50" height="50" relative="1" as="geometry">
            <mxPoint x="240" y="350" as="sourcePoint" />
            <mxPoint x="240" y="380" as="targetPoint" />
            <Array as="points" />
          </mxGeometry>
        </mxCell>
        <mxCell id="YZSK7R1u2EPZjKXsCUIQ-19" value="Generated link" style="text;html=1;align=center;verticalAlign=middle;resizable=0;points=[];autosize=1;strokeColor=none;fillColor=none;" vertex="1" parent="1">
          <mxGeometry x="280" y="340" width="100" height="30" as="geometry" />
        </mxCell>
        <mxCell id="YZSK7R1u2EPZjKXsCUIQ-21" value="" style="endArrow=classic;html=1;rounded=0;exitX=0;exitY=0.5;exitDx=0;exitDy=0;entryX=1;entryY=0.5;entryDx=0;entryDy=0;" edge="1" parent="1" source="tw96S8PIWbqsb8BUTVGT-3" target="x-VR_CXFXEozURfhH9ks-1">
          <mxGeometry width="50" height="50" relative="1" as="geometry">
            <mxPoint x="449" y="381" as="sourcePoint" />
            <mxPoint x="250" y="380" as="targetPoint" />
            <Array as="points" />
          </mxGeometry>
        </mxCell>
        <mxCell id="YZSK7R1u2EPZjKXsCUIQ-22" value="Signup response" style="text;html=1;align=center;verticalAlign=middle;resizable=0;points=[];autosize=1;strokeColor=none;fillColor=none;" vertex="1" parent="1">
          <mxGeometry x="280" y="270" width="110" height="30" as="geometry" />
        </mxCell>
        <mxCell id="YZSK7R1u2EPZjKXsCUIQ-23" value="" style="endArrow=classic;html=1;rounded=0;entryX=-0.023;entryY=0.202;entryDx=0;entryDy=0;entryPerimeter=0;" edge="1" parent="1">
          <mxGeometry width="50" height="50" relative="1" as="geometry">
            <mxPoint x="610" y="280" as="sourcePoint" />
            <mxPoint x="767.7" y="280.4000000000001" as="targetPoint" />
          </mxGeometry>
        </mxCell>
        <mxCell id="YZSK7R1u2EPZjKXsCUIQ-24" value="" style="endArrow=classic;html=1;rounded=0;exitX=-0.006;exitY=0.585;exitDx=0;exitDy=0;exitPerimeter=0;" edge="1" parent="1" source="x-VR_CXFXEozURfhH9ks-2">
          <mxGeometry width="50" height="50" relative="1" as="geometry">
            <mxPoint x="430" y="520" as="sourcePoint" />
            <mxPoint x="610" y="317" as="targetPoint" />
          </mxGeometry>
        </mxCell>
        <mxCell id="YZSK7R1u2EPZjKXsCUIQ-25" value="view file metadata" style="text;html=1;align=center;verticalAlign=middle;resizable=0;points=[];autosize=1;strokeColor=none;fillColor=none;" vertex="1" parent="1">
          <mxGeometry x="620" y="250" width="120" height="30" as="geometry" />
        </mxCell>
        <mxCell id="YZSK7R1u2EPZjKXsCUIQ-26" value="Retrive files" style="text;html=1;align=center;verticalAlign=middle;resizable=0;points=[];autosize=1;strokeColor=none;fillColor=none;" vertex="1" parent="1">
          <mxGeometry x="640" y="285" width="90" height="30" as="geometry" />
        </mxCell>
      </root>
    </mxGraphModel>
  </diagram>
</mxfile>
